<svg width="20" height="20" viewBox="0 0 20 20" fill="none" xmlns="http://www.w3.org/2000/svg">
<path d="M7.59375 0L7.28125 0.234375L6.5625 0.833333H0V2.5H1V17.5C1 18.8704 2.35547 20 4 20H16C17.6445 20 19 18.8704 19 17.5V2.5H20V0.833333H13.4375L12.7188 0.234375L12.4062 0H7.59375ZM8.4375 1.66667H11.5625L12.2812 2.26562L12.5938 2.5H17V17.5C17 17.9622 16.5547 18.3333 16 18.3333H4C3.44531 18.3333 3 17.9622 3 17.5V2.5H7.40625L7.71875 2.26562L8.4375 1.66667ZM5 5.83333V15H7V5.83333H5ZM9 5.83333V15H11V5.83333H9ZM13 5.83333V15H15V5.83333H13Z" fill="#7774E1"/>
</svg>
