<svg width="20" height="20" viewBox="0 0 20 20" fill="none" xmlns="http://www.w3.org/2000/svg">
<path d="M16.6067 0C15.7455 0 14.8843 0.33419 14.2159 1.00257L1.20823 14.0103L1.15681 14.2674L0.257069 18.7918L0 20L1.20823 19.7429L5.73265 18.8432L5.98972 18.7918L18.9974 5.78406C20.3342 4.4473 20.3342 2.33933 18.9974 1.00257C18.3291 0.33419 17.4679 0 16.6067 0ZM16.6067 1.56812C17.0212 1.56812 17.4389 1.75771 17.8406 2.15938C18.6407 2.95951 18.6407 3.82712 17.8406 4.62725L17.2494 5.1928L14.8072 2.75064L15.3728 2.15938C15.7744 1.75771 16.1922 1.56812 16.6067 1.56812ZM13.6504 3.90745L16.0925 6.34961L6.14396 16.2982C5.60411 15.2442 4.75578 14.3959 3.7018 13.856L13.6504 3.90745ZM2.64781 15.1928C3.63432 15.5913 4.40874 16.3657 4.8072 17.3522L2.10797 17.892L2.64781 15.1928Z" fill="#7774E1"/>
</svg>
